<?xml version="1.0" standalone="no"?>
<!DOCTYPE svg PUBLIC "-//W3C//DTD SVG 20010904//EN"
 "http://www.w3.org/TR/2001/REC-SVG-20010904/DTD/svg10.dtd">
<svg version="1.0" xmlns="http://www.w3.org/2000/svg"
 width="700.000000pt" height="700.000000pt" viewBox="0 0 700.000000 700.000000"
 preserveAspectRatio="xMidYMid meet">
<metadata>
Created by potrace 1.14, written by Peter Selinger 2001-2017
</metadata>
<g transform="translate(0.000000,700.000000) scale(0.100000,-0.100000)"
fill="#000000" stroke="none">
<path d="M2715 6986 c-138 -36 -239 -115 -304 -236 -54 -101 -55 -111 -56
-583 -1 -240 -5 -440 -8 -443 -3 -4 -19 -7 -34 -9 -156 -13 -269 -124 -277
-270 -8 -144 76 -287 207 -349 31 -14 68 -27 82 -28 14 -1 25 -5 26 -8 1 -3 2
-19 4 -36 13 -151 22 -200 61 -339 24 -82 103 -258 155 -345 39 -64 129 -174
206 -252 l76 -77 -1 -137 c-2 -120 -5 -143 -24 -182 -26 -52 -77 -97 -128
-113 -19 -6 -60 -23 -90 -36 -30 -14 -59 -26 -65 -28 -5 -1 -19 -6 -30 -10
-11 -4 -76 -30 -145 -57 -69 -26 -133 -53 -142 -58 -10 -6 -22 -10 -28 -10 -6
0 -29 -9 -53 -19 -23 -10 -103 -42 -177 -71 -74 -29 -148 -58 -165 -65 -16 -7
-124 -50 -240 -95 -115 -46 -232 -94 -260 -108 -176 -87 -333 -260 -411 -452
-59 -146 -57 -91 -59 -1365 -2 -1042 -1 -1172 13 -1187 14 -17 169 -18 2977
-18 3325 0 3016 -8 3100 77 80 80 76 0 73 1304 l-3 1154 -22 40 c-29 54 -68
90 -127 116 -49 21 -60 22 -431 21 l-382 0 -18 30 c-29 49 -145 167 -211 214
-53 38 -110 68 -246 128 -20 9 -38 16 -41 16 -6 0 -569 221 -612 240 -37 16
-560 222 -601 236 -57 20 -108 66 -133 118 -17 38 -21 66 -23 181 l-1 136 76
77 c198 199 316 408 380 672 24 96 41 207 41 270 0 28 12 40 39 40 36 0 129
53 174 98 89 90 127 221 98 334 -31 115 -135 202 -252 211 -23 2 -46 6 -49 10
-4 4 -8 204 -9 445 -1 240 -5 447 -8 458 -36 137 -99 226 -212 299 -114 74
-64 70 -905 72 -593 1 -766 -1 -805 -11z"/>
</g>
</svg>
